<svg xmlns="http://www.w3.org/2000/svg" width="22" height="22" viewBox="0 0 22 22">
  <defs>
    <style>
      .cls-1 {
        fill: #fff;
        fill-rule: evenodd;
      }
    </style>
  </defs>
  <path id="_2" data-name="2" class="cls-1" d="M661,836a11,11,0,1,1-11,11A11,11,0,0,1,661,836Zm0,3a1,1,0,0,1,1,1v7a1,1,0,0,1-2,0v-7A1,1,0,0,1,661,839Zm-0.711,7.289a1.009,1.009,0,0,1,1.427,0l3,3a1.009,1.009,0,0,1-1.427,1.427l-3-3A1.009,1.009,0,0,1,660.289,846.289Z" transform="translate(-650 -836)"/>
</svg>
